<svg xmlns="http://www.w3.org/2000/svg" xmlns:xlink="http://www.w3.org/1999/xlink" version="1.1" x="0px" y="0px" viewBox="0 0 100 125" style="enable-background:new 0 0 100 100;" xml:space="preserve"><g><path fill="#808090" d="M72.1,38.6l6.4-14.8c0.6-1.4,0.2-3-0.8-4c-1.1-1-2.7-1.2-4-0.5L59.4,27L47.3,16.3c-1.1-1-2.7-1.2-4-0.4   c-1.3,0.7-2,2.2-1.7,3.7l2.9,15.9l-13.9,8.2c-1.3,0.8-1.9,2.2-1.6,3.7s1.5,2.6,3,2.8L44,51.8L8.3,87.4c-1.4,1.4-1.4,3.6,0,4.9   c0.7,0.7,1.6,1,2.5,1s1.8-0.3,2.5-1l35.6-35.6L51.4,68c0.3,1.5,1.5,2.5,3,2.7c0.1,0,0.3,0,0.4,0c1.3,0,2.6-0.8,3.2-2l7-14.5l16,1.5   c1.5,0.1,2.9-0.7,3.5-2c0.6-1.4,0.3-3-0.8-4L72.1,38.6z M63.2,47c-1.5-0.1-2.8,0.6-3.5,2L56,56.6l-1.9-8.3   c-0.3-1.4-1.5-2.5-2.9-2.7l-8.4-1.1l7.3-4.3c1.3-0.7,1.9-2.2,1.7-3.6l-1.5-8.3l6.4,5.6c1.1,1,2.7,1.1,4,0.5l7.5-4L64.7,38   c-0.6,1.3-0.3,2.9,0.8,3.9l6.1,5.9L63.2,47z"/><polygon points="30.2,34 31.3,38.7 33.3,34.3 38.1,34.8 34.7,31.4 36.6,27 32.3,29.3 28.7,26.1 29.6,30.9 25.4,33.3  "/><polygon points="62.9,14.3 60.5,10.1 59.8,14.9 55.1,15.8 59.4,18 58.8,22.8 62.2,19.4 66.6,21.4 64.4,17.1 67.7,13.5  "/><polygon points="88.6,34.2 84.1,35.9 80.9,32.3 81.2,37.1 76.8,39.1 81.4,40.3 81.9,45.1 84.5,41 89.2,42.1 86.2,38.4  "/><polygon points="73.1,57 70,59.8 66.4,57.8 68,61.6 65.1,64.5 69.2,64.1 71,67.8 71.9,63.7 75.9,63.2 72.4,61.1  "/></g></svg>
